<svg width="32" height="32" viewBox="0 0 32 32" fill="none" xmlns="http://www.w3.org/2000/svg">
<circle cx="16" cy="16" r="16" fill="black"/>
<path d="M7.11328 21V12.3516H10.8457C11.6113 12.3516 12.2031 12.459 12.6211 12.6738C13.0391 12.8887 13.3281 13.1895 13.4883 13.5762C13.6523 13.9629 13.7344 14.416 13.7344 14.9355C13.7344 15.291 13.7012 15.625 13.6348 15.9375C13.5723 16.2461 13.4492 16.5195 13.2656 16.7578C13.082 16.9961 12.8145 17.1875 12.4629 17.332L14.1328 21H12.3281L10.8105 17.584H8.85352V21H7.11328ZM8.85352 16.3418H10.9922C11.2891 16.3418 11.5137 16.2832 11.666 16.166C11.8223 16.0449 11.9277 15.8848 11.9824 15.6855C12.041 15.4824 12.0703 15.2578 12.0703 15.0117C12.0703 14.7773 12.0449 14.5508 11.9941 14.332C11.9473 14.1133 11.8516 13.9355 11.707 13.7988C11.5664 13.6582 11.3516 13.5879 11.0625 13.5879H8.85352V16.3418ZM15.8086 21V12.3516H17.7246L20.168 16.5645L22.6113 12.3516H24.5625V21H22.9336V14.6074L20.7715 18.4863H19.6055L17.4375 14.7539V21H15.8086Z" fill="white"/>
</svg>
